<?xml version="1.0" encoding="UTF-8"?>
<svg id="Layer_1" xmlns="http://www.w3.org/2000/svg" version="1.1" xmlns:xlink="http://www.w3.org/1999/xlink" viewBox="0 0 1000 1000">
  <!-- Generator: Adobe Illustrator 29.6.1, SVG Export Plug-In . SVG Version: 2.1.1 Build 9)  -->
  <defs>
    <style>
      .st0 {
        fill: url(#linear-gradient2);
      }

      .st1 {
        fill: #fff;
      }

      .st2 {
        fill: url(#linear-gradient1);
      }

      .st3 {
        fill: #0f1b20;
      }

      .st4 {
        fill: #192326;
      }

      .st5 {
        fill: url(#linear-gradient7);
      }

      .st6 {
        fill: url(#linear-gradient4);
      }

      .st7 {
        fill: #f48b0d;
      }

      .st8 {
        fill: url(#linear-gradient5);
      }

      .st9 {
        fill: url(#linear-gradient3);
      }

      .st10 {
        fill: url(#linear-gradient6);
      }

      .st11 {
        fill: url(#linear-gradient);
      }
    </style>
    <linearGradient id="linear-gradient" x1="402" y1="446.15" x2="526.44" y2="446.15" gradientUnits="userSpaceOnUse">
      <stop offset="0" stop-color="#fd9712"/>
      <stop offset="1" stop-color="#cc3358"/>
    </linearGradient>
    <linearGradient id="linear-gradient1" x1="520.22" y1="443.04" x2="595.77" y2="443.04" xlink:href="#linear-gradient"/>
    <linearGradient id="linear-gradient2" x1="282.89" y1="463.97" x2="410.59" y2="463.97" xlink:href="#linear-gradient"/>
    <linearGradient id="linear-gradient3" x1="217.2" y1="275.61" x2="797.2" y2="275.61" gradientUnits="userSpaceOnUse">
      <stop offset=".3" stop-color="#ee2a39"/>
      <stop offset=".74" stop-color="#d82475"/>
    </linearGradient>
    <linearGradient id="linear-gradient4" x1="203.77" y1="333.57" x2="789.42" y2="333.57" gradientUnits="userSpaceOnUse">
      <stop offset=".28" stop-color="#ef4024"/>
      <stop offset=".88" stop-color="#ba196c"/>
    </linearGradient>
    <linearGradient id="linear-gradient5" x1="202.8" y1="382.94" x2="777.42" y2="382.94" gradientUnits="userSpaceOnUse">
      <stop offset="0" stop-color="#f26017"/>
      <stop offset="1" stop-color="#e73f53"/>
    </linearGradient>
    <linearGradient id="linear-gradient6" x1="210.13" y1="432.61" x2="740.45" y2="432.61" gradientUnits="userSpaceOnUse">
      <stop offset="0" stop-color="#fd9712"/>
      <stop offset="1" stop-color="#f04e2b"/>
    </linearGradient>
    <linearGradient id="linear-gradient7" x1="242.95" y1="472.31" x2="722.41" y2="472.31" gradientUnits="userSpaceOnUse">
      <stop offset="0" stop-color="#fd9712"/>
      <stop offset=".8" stop-color="#cc3358"/>
    </linearGradient>
  </defs>
  <g>
    <g>
      <path class="st4" d="M219.24,633.48h12.16v45.44c0,14.42-4.69,21.28-20.59,21.28s-20.76-6.86-20.76-21.28v-45.44h12.16v44.39c0,6.25.43,12.51,8.69,12.51s8.34-6.26,8.34-12.51v-44.39Z"/>
      <path class="st4" d="M272.24,633.48h12.16v65.16h-12.68l-9.47-23.2c-3.21-7.73-5.82-15.64-8.69-25.89h-.17c.43,5.39.96,11.99,1.3,18.59.35,6.52.61,13.03.61,18.24v12.25h-12.16v-65.16h12.6l9.47,23.72c3.13,7.56,5.73,15.29,8.69,25.89h.17c-.43-5.91-.87-12.25-1.22-18.51-.35-6.25-.61-12.51-.61-18.33v-12.77Z"/>
      <path class="st4" d="M296.3,698.64v-65.16h12.16v65.16h-12.16Z"/>
      <path class="st4" d="M315.94,633.48h40.57v9.56h-14.16v55.6h-12.16v-55.6h-14.25v-9.56Z"/>
      <path class="st4" d="M363.46,698.64v-65.16h34.23v9.56h-22.07v16.42h20.33v9.56h-20.33v20.07h22.07v9.56h-34.23Z"/>
      <path class="st4" d="M407.6,698.64v-65.16h25.37c2.95,0,8.86,1.3,12.6,7.38,2.78,4.52,3.56,11.73,3.56,22.5,0,12.86,0,27.71-9.99,33.53-2.69,1.56-5.99,1.74-9.04,1.74h-22.5ZM425.06,689.09c10.86,0,11.55-5.73,11.55-24.59,0-15.38-1.56-21.46-8.86-21.46h-7.99v46.04h5.3Z"/>
      <path class="st4" d="M506.91,653.29c.09-5.82-.43-11.55-7.12-11.55-4.08,0-6.69,1.65-6.69,6.08,0,4.95,3.13,6.86,6.95,9.3,4,2.52,11.38,7.38,14.77,10.69,4.17,4.08,5.47,7.99,5.47,13.64,0,12.34-8.17,18.77-20.07,18.77-14.6,0-19.81-8.17-19.81-19.81v-4.78h12.16v3.82c-.26,6.34,1.65,10.95,7.65,10.95,5.13,0,7.56-2.69,7.56-7.65,0-3.82-1.74-6.43-4.86-8.6-6.34-4.95-14.25-8.51-19.2-15.03-2-2.95-3.13-6.52-3.13-9.99,0-11.12,6.26-17.2,19.11-17.2,19.37,0,18.85,14.94,18.94,21.37h-11.73Z"/>
      <path class="st4" d="M559.56,633.48h12.16v45.44c0,14.42-4.69,21.28-20.59,21.28s-20.76-6.86-20.76-21.28v-45.44h12.16v44.39c0,6.25.44,12.51,8.69,12.51s8.34-6.26,8.34-12.51v-44.39Z"/>
      <path class="st4" d="M612.56,633.48h12.16v65.16h-12.68l-9.47-23.2c-3.21-7.73-5.82-15.64-8.69-25.89h-.17c.44,5.39.96,11.99,1.3,18.59.35,6.52.61,13.03.61,18.24v12.25h-12.16v-65.16h12.6l9.47,23.72c3.13,7.56,5.73,15.29,8.69,25.89h.17c-.43-5.91-.87-12.25-1.22-18.51-.35-6.25-.61-12.51-.61-18.33v-12.77Z"/>
      <path class="st4" d="M661.38,653.29c.09-5.82-.43-11.55-7.12-11.55-4.08,0-6.69,1.65-6.69,6.08,0,4.95,3.13,6.86,6.95,9.3,4,2.52,11.38,7.38,14.77,10.69,4.17,4.08,5.47,7.99,5.47,13.64,0,12.34-8.17,18.77-20.07,18.77-14.6,0-19.81-8.17-19.81-19.81v-4.78h12.16v3.82c-.26,6.34,1.65,10.95,7.65,10.95,5.13,0,7.56-2.69,7.56-7.65,0-3.82-1.74-6.43-4.86-8.6-6.34-4.95-14.25-8.51-19.2-15.03-2-2.95-3.13-6.52-3.13-9.99,0-11.12,6.26-17.2,19.11-17.2,19.37,0,18.85,14.94,18.94,21.37h-11.73Z"/>
      <path class="st4" d="M684.5,698.64v-65.16h34.23v9.56h-22.07v16.42h20.33v9.56h-20.33v20.07h22.07v9.56h-34.23Z"/>
      <path class="st4" d="M723.85,633.48h40.57v9.56h-14.16v55.6h-12.16v-55.6h-14.25v-9.56Z"/>
      <path class="st4" d="M796.57,653.29c.09-5.82-.43-11.55-7.12-11.55-4.08,0-6.69,1.65-6.69,6.08,0,4.95,3.13,6.86,6.95,9.3,4,2.52,11.38,7.38,14.77,10.69,4.17,4.08,5.47,7.99,5.47,13.64,0,12.34-8.17,18.77-20.07,18.77-14.6,0-19.81-8.17-19.81-19.81v-4.78h12.16v3.82c-.26,6.34,1.65,10.95,7.65,10.95,5.13,0,7.56-2.69,7.56-7.65,0-3.82-1.74-6.43-4.86-8.6-6.34-4.95-14.25-8.51-19.2-15.03-2-2.95-3.13-6.52-3.13-9.99,0-11.12,6.26-17.2,19.11-17.2,19.37,0,18.85,14.94,18.94,21.37h-11.73Z"/>
    </g>
    <g>
      <path class="st4" d="M342.89,726.87c3.45,3.15,5.17,7.52,5.17,13.08s-1.72,9.92-5.17,13.08c-3.45,3.15-8.02,4.73-13.71,4.73s-10.22-1.58-13.69-4.73c-3.46-3.15-5.19-7.51-5.19-13.08s1.74-9.84,5.22-13.03c3.48-3.19,8.03-4.78,13.66-4.78s10.26,1.58,13.71,4.73ZM338.45,739.95c0-2.91-.84-5.24-2.52-6.99-1.68-1.75-3.93-2.62-6.75-2.62s-4.98.9-6.7,2.69c-1.72,1.8-2.57,4.1-2.57,6.92s.86,5.16,2.6,6.94c1.73,1.78,3.96,2.67,6.67,2.67s5.02-.89,6.72-2.67c1.7-1.78,2.55-4.09,2.55-6.94Z"/>
      <path class="st4" d="M369.07,756.93h-9.51v-33.97h26.06v8.06h-16.55v6.36h15.53v7.86h-15.53v11.7Z"/>
      <path class="st4" d="M437.79,756.93l-2.23-5.58h-15.19l-2.23,5.58h-10.19l15.24-33.97h9.71l15.19,33.97h-10.29ZM432.3,743.3l-4.32-10.82-4.37,10.82h8.69Z"/>
      <path class="st4" d="M485.68,756.93v-20.24l-8.69,10.29h-1.7l-8.49-10.24v20.19h-9.51v-33.97h10.05l8.93,11.5,8.93-11.5h10v33.97h-9.51Z"/>
      <path class="st4" d="M535.77,748.83v8.1h-27.18v-33.97h26.5v8.06h-17.03v4.85h16.06v7.81h-16.06v5.14h17.71Z"/>
      <path class="st4" d="M579.15,756.35v.58h-10.58l-7.91-11.02h-3.35v11.02h-9.61v-33.97h16.6c4.14,0,7.38,1.13,9.71,3.4,2.33,2.26,3.49,5.03,3.49,8.3,0,2.3-.53,4.28-1.58,5.95-1.05,1.67-2.92,3.1-5.61,4.29l8.83,11.45ZM564.3,730.63h-6.99v8.15h7.08c1.2,0,2.1-.38,2.72-1.14.61-.76.92-1.69.92-2.79,0-1.16-.32-2.16-.97-2.98-.65-.82-1.57-1.24-2.77-1.24Z"/>
      <path class="st4" d="M599.53,756.93h-9.56v-33.97h9.56v33.97Z"/>
      <path class="st4" d="M637.68,746.21l5.63,6.31c-3.56,3.53-8.1,5.29-13.64,5.29-3.24,0-6.07-.48-8.52-1.43-2.44-.95-4.38-2.26-5.8-3.93-1.42-1.67-2.49-3.53-3.2-5.58-.71-2.05-1.07-4.28-1.07-6.67,0-2.23.38-4.4,1.14-6.5.76-2.1,1.87-4.02,3.32-5.75s3.41-3.12,5.85-4.17c2.44-1.05,5.2-1.58,8.27-1.58,5.05,0,9.43,1.81,13.15,5.44l-5.92,5.82c-2.07-1.97-4.48-2.96-7.23-2.96-3.01,0-5.28.99-6.82,2.98s-2.29,4.25-2.26,6.77c.03,2.56.78,4.76,2.26,6.62,1.47,1.86,3.74,2.79,6.82,2.79,1.26,0,2.63-.28,4.1-.85,1.47-.57,2.77-1.43,3.91-2.6Z"/>
      <path class="st4" d="M679.41,756.93l-2.23-5.58h-15.19l-2.23,5.58h-10.19l15.24-33.97h9.71l15.19,33.97h-10.29ZM673.93,743.3l-4.32-10.82-4.37,10.82h8.69Z"/>
    </g>
  </g>
  <g>
    <circle class="st7" cx="475.97" cy="394.23" r="74.51"/>
    <path class="st11" d="M402,446.96l29.33,35.85,53.93,24s12.45-15.45,13.93-15.28,27.26-11.09,27.26-11.09l-45.04-53.69-2.67-41.26-14.52,5.6-62.22,55.87Z"/>
    <path class="st2" d="M520.22,423.85l41.78,36.44,22.52,12.02h11.26s-35.78-45.32-37.15-45.56-9.66-12.98-9.66-12.98l-28.74,10.07Z"/>
    <path class="st0" d="M282.89,488.44l18.37,12.74,109.33-18.37s-28.74-38.51-29.04-38.96-13.93-17.1-13.93-17.1l-84.74,61.69Z"/>
    <path class="st1" d="M589.97,309.03h-23.48c7.93-3.5,14.99-16.64,21.55-11.56,1.18.88,1.82,2.34,1.76,3.82.16,2.35-1.87,6.09.17,7.74Z"/>
    <path class="st1" d="M616.26,308.72c.06.11.12.21.19.31h-16.76c5.19-2.27,13.51-5.42,16.57-.31Z"/>
    <path class="st9" d="M567.7,289.05c-3.29-2.1-7.4-1.22-11.04-1.74-4.89-1.48-9.81.22-14.72.02-4.96-.77-8.7-5.11-13.78-5.52-5.5-.32-9.95,2.54-12.31-2.17-.83-1.53-1.02-3.64-2.03-4.94-.81-1.07-2.21-1.86-3.64-2.02-3.47-.47-6.14,2.53-9.45,3-7.74.52-15.54.28-23.3.23-74.17-2.37-149.24-10.97-220.03-33.72-9.31.46-3.25,14.87-7.08,13.17-2.68-1.61-4.94-3.95-7.16-6.17-1.31-1.34-2.54-2.98-4.45-3.33-3.57-.78-7.28,2.1-6.98,5.94.63,12.14-1.34,24.02-5.11,35.42-2.47,7.51-5.71,14.79-9.42,21.81h341.95c-1.17-.41-2.24-1-2.15-2.23,2.38-4.18,6.94-6.99,10.79-9.76,2.52-1.84,2.45-6.16-.09-7.99ZM792.79,290.26l-.27-.26c-2.85-2.23-6.06-5.29-7.1-7.86-1.69-3.77-2.7-8.85-4.74-12.85-5.18-9.88-11.93-8.54-21.21-6.28-12.07,4.37-6.99,19.41-9.52,29.06-3.36,15.34-16.01,14.31-27.48,16.96h66.95c.14-.11.29-.21.45-.31,8.4-4.96,9.87-11.31,2.92-18.46Z"/>
    <path class="st6" d="M640.87,343.15c-.59-.1-1.34-.19-1.68-.69-.41-.45-.37-1.32-.39-1.96-.03-7.59-4.72-15.02-12.35-15.92-3.42-.48.88-2.47,1.86-3.36,1.18-.93,2.1-2.39,2.36-3.9.94-5.15-6.29-7.05-11.38-6.56-1.33.17-2.2-.68-2.84-1.73H217.2c-1.78,3.37-3.67,6.67-5.64,9.91-.88,1.47-1.61,3.06-2.04,4.72-2.39,9.05,2.01,19.23-2.78,27.88-1.34,2.55-2.32,4.65-2.97,6.56h213.11c27.8-46.14,93.07-40.08,118.52,0h58.38c.03-.39.07-.78.1-1.16l.03-.31c1.51-14.29-.32-23.5,12.86-32.39,1.68-1.34,3.74-1.7,5.75-1.44.83.03,1.41.14,1.38.52-.16.76-.95,1.37-1.38,2.16-1.07,1.59-1.66,3.51-2.69,5.09-2.08,2.47-5.97,3.25-7.34,6.31-.98,1.92-1.62,3.93-2.21,5.75-.29,1.02-.54,1.92-.78,3.02-1.16,5.13-.93,9.09-.28,12.45h52.09c-1.82-5.86-4.26-14.4-10.44-14.95ZM722.47,309.03c-3,.69-5.93,1.64-8.58,3.19-5.33,3.7-8.73,9.37-12.42,14.58-4.52,5.65,2.07,9.24-1.02,13.34-5.31,5.86-15.99,1.3-22.68,5.55-2.33,1.48-3.11,4.4-2.31,6.93.51,1.74,1.3,2.96.57,4.4-.18.36-.4.72-.64,1.08h102.03c2.26-2.21,2.43-6.61.39-8.54-1.93-2.33-5.34-3.89-7.39-6.58-3.2-3.73-1.35-9.9.84-13.74,1.97-3.49,6.45-4.9,8.01-8.77,1.01-2.47,1.57-5.14,4.18-6.3,2.3-1.32,3.75-3.55,5.97-5.14h-66.95Z"/>
    <path class="st1" d="M474.61,407.77c1.93-5.04,2.35-10.64,1.58-15.99-.12-.77-.36-1.3-.79-1.31-7.15,5.53-14.13,11.35-21.03,17.3h-17.68c12.32-11.05,24.63-22.13,37.83-32.02,1.78-1.08,3.87-1.76,5.88-1.06,7.5,2.82,13.77,8.6,20.61,12.8l.24.15c8.44,5.4,14.85,13.42,22.2,20.13h-48.84Z"/>
    <path class="st8" d="M205.1,373.96c.68,4.69-1.62,9.58-.5,14.36.53,4.83,2.88,9.25,4.78,13.77.1,1.92.39,3.81.75,5.68h196.35c-2.12-12.17-.28-25.16,4.15-36.72,1.78-4.7,3.88-9.02,6.25-12.95h-213.11c-1.69,4.99-1.12,8.7,1.33,15.86ZM675.39,358.1c-3.85,5.6-15.23,11.05-20.17,16.27-1.57,1.91-6.72,4.5-7.88,1.14-.1-1.2.68-2.18,1.29-3.35,2.14-4.01,3.75-8.49,3.03-12.97-.11-.35-.23-.72-.35-1.09h-52.09c1.38,7.32,4.71,11.79-.24,19.2-.63.84-1.37.88-1.97.18-4.24-5.41-3.78-12.89-3.23-19.38h-58.38c7.57,11.91,11.62,26.84,10.11,44.29-.24,1.03-.79,1.78-1.64,2.34-1.65.99-3.29,2.01-4.92,3.04h201.47c3.62-7.4,7.12-15.25,5.69-23.68-.09-.78-.23-1.71.13-2.37.29-.67,1.13-1.11,1.83-1.41,7.25-3.17,14.86-7.44,17.42-15.15.46-1.19,1.34-2,2.53-2.39,3.14-.98,6.26-2.23,8.9-4.25.18-.13.35-.27.5-.42h-102.03Z"/>
    <path class="st10" d="M409.17,447.14c15.36-12.64,30.08-26.32,45.2-39.37h-17.68c-6.9,6.19-13.81,12.38-20.88,18.35-.98.84-1.85.91-2.58-.18-3.46-5.62-5.65-11.78-6.75-18.17h-196.35c.81,4.23,1.98,8.39,2.14,12.69-.75,9.96,8.11,17.37,9.1,26.95-.27,2.87-.87,7.33.23,10.03h114.26c10.49-7.7,20.77-15.68,30.83-23.94,2.51-2.16,3.59,2.18,4.76,3.79,2.15,3.92,3.5,8.13,4.07,12.6.37,2.54.75,5.22,1.84,7.55h41.73c-3.29-2.59-6.57-5.15-9.87-7.63-1.11-.84-1.23-1.7-.05-2.67ZM736.29,439.25c-.73-1.8-2.61-3.27-2.43-5.32.2-2.49,2.08-4.49,3.18-6.66,2.9-5.02,3.98-10.46,3.13-16.04-.14-.96-.25-1.97-.03-2.9.09-.19.18-.37.28-.56h-201.47c-2.35,1.48-4.69,2.99-7.03,4.49-.84.53-1.67.75-2.48.41-2.09-1.5-4.07-3.16-5.99-4.9h-48.84c-.87,2.31-2.06,4.5-3.59,6.5-8.84,11.26-18.42,22.48-27.19,33.59,8.61-3.42,16.75-8.87,24.56-13.99.73-.51,1.64-.97,2.5-.73,8.13,5,14.27,12.99,20.92,19.85,1.38,1.51,2.79,2.99,4.22,4.45h73.32c-2.64-1.9-5.34-3.68-8.14-5.2l-.24-.12c-11.89-5.24-21.35-14.75-31.37-22.89-1.13-.84-.74-1.72.36-2.31,5.44-3.48,11.15-6.51,16.58-10,.49-.32,1.2-.74,1.66-.35,1.27,2.78,1.82,6.04,3.71,8.74,4.25,6.92,10.72,12.12,15.89,18.31,4.12,4.35,8.14,8.95,11.79,13.82h156.54c1.41-1.73,3.13-3.56,3.45-6.5.39-3.32-1.9-5.62-2.47-8.31-.25-1.13-.37-2.31-.82-3.38Z"/>
    <path class="st5" d="M243.8,458.12c3.37,2.75,6.43,5.95,9.48,9.06,5.59,4.84,10.03,10.92,11.38,18.33,3.15,4.73,22.72-9.94,28.48-12.99,7.32-4.64,14.51-9.45,21.61-14.4.33-.22.66-.45.99-.68h-72.79c.29.22.57.44.85.68ZM722.24,458.12c-.03-.23-.08-.45-.13-.68h-69.35c.29.23.57.46.86.68,12.24,9.71,24.8,19.06,38.04,27.34,1.81,1.14,4.24,2.81,5.97.73,2.73-3.72,6.45-6.25,9.96-9.12,2.73-2.94,4.49-6.78,7.6-9.35,2.33-2.05,5.47-3.48,6.89-6.37.48-1.01.37-2.11.16-3.23Z"/>
    <path class="st3" d="M675.39,358.1c-3.85,5.6-15.23,11.05-20.17,16.27-1.57,1.91-6.72,4.5-7.88,1.14-.1-1.2.68-2.18,1.29-3.35,2.14-4.01,3.75-8.49,3.03-12.97-.11-.35-.23-.72-.35-1.09h-11.3c2.32,8.95-8.98,16.69-3.02,24.81,10.27,13.03,25.58.87,35.37-7.37,6.14-4.66,14.55-9.13,15.68-17.44h-12.65ZM627.44,358.1c2.16,2.08,5.42,1.56,7.96,0h-7.96ZM611.16,358.1h-11.94c1.38,7.32,4.71,11.79-.24,19.2-.63.84-1.37.88-1.97.18-4.24-5.41-3.78-12.89-3.23-19.38h-10.45c-.06.97-.16,1.93-.28,2.88-.95,9.82,1.87,24.11,12.28,27.81,8.87,2.18,16.55-6.29,17.53-14.64.85-5.33-.78-10.69-1.7-16.05ZM543.87,404.73c-1.65.99-3.29,2.01-4.92,3.04h18.96c-.36-.3-.73-.59-1.09-.88,1.79-17.66-1.81-34.45-9.29-48.79-17.79-34.15-57.56-54.44-98.9-39.67-19.62,6.63-35.36,21.52-44.81,39.67-7.94,15.24-11.44,32.79-9.06,49.67h11.72c-2.12-12.17-.28-25.16,4.15-36.72,1.78-4.7,3.88-9.02,6.25-12.95,27.8-46.14,93.07-40.08,118.52,0,7.57,11.91,11.62,26.84,10.11,44.29-.24,1.03-.79,1.78-1.64,2.34ZM543.87,404.73c-1.65.99-3.29,2.01-4.92,3.04h18.96c-.36-.3-.73-.59-1.09-.88,1.79-17.66-1.81-34.45-9.29-48.79-17.79-34.15-57.56-54.44-98.9-39.67-19.62,6.63-35.36,21.52-44.81,39.67-7.94,15.24-11.44,32.79-9.06,49.67,1.23,8.7,4.01,17.22,8.55,25.17,1.58,2.43-1,4.24-3.02,5.6-2.51,1.83-5.01-.76-7.18-1.96-3.73-2.32-7.53-5-11.17-7.67-8.83-6.52-11.54-9.33-17.35-6.66-3.58,1.65-8.95,5.86-12.56,8.62-11.98,9.05-24,17.99-36.29,26.57h20.12c10.49-7.7,20.77-15.68,30.83-23.94,2.51-2.16,3.59,2.18,4.76,3.79,2.15,3.92,3.5,8.13,4.07,12.6.37,2.54.75,5.22,1.84,7.55h41.73c-3.29-2.59-6.57-5.15-9.87-7.63-1.11-.84-1.23-1.7-.05-2.67,15.36-12.64,30.08-26.32,45.2-39.37,6.9-5.95,13.88-11.77,21.03-17.3.43,0,.67.54.79,1.31.77,5.35.35,10.95-1.58,15.99h48.84c-7.35-6.71-13.76-14.73-22.2-20.13l-.24-.15c-6.84-4.2-13.11-9.98-20.61-12.8-2.01-.7-4.1-.02-5.88,1.06-13.2,9.89-25.51,20.97-37.83,32.02-6.9,6.19-13.81,12.38-20.88,18.35-.98.84-1.85.91-2.58-.18-3.46-5.62-5.65-11.78-6.75-18.17-2.12-12.17-.28-25.16,4.15-36.72,1.78-4.7,3.88-9.02,6.25-12.95,27.8-46.14,93.07-40.08,118.52,0,7.57,11.91,11.62,26.84,10.11,44.29-.24,1.03-.79,1.78-1.64,2.34ZM543.87,404.73c-1.65.99-3.29,2.01-4.92,3.04h18.96c-.36-.3-.73-.59-1.09-.88,1.79-17.66-1.81-34.45-9.29-48.79-17.79-34.15-57.56-54.44-98.9-39.67-19.62,6.63-35.36,21.52-44.81,39.67-7.94,15.24-11.44,32.79-9.06,49.67,1.23,8.7,4.01,17.22,8.55,25.17,1.58,2.43-1,4.24-3.02,5.6-2.51,1.83-5.01-.76-7.18-1.96-3.73-2.32-7.53-5-11.17-7.67-8.83-6.52-11.54-9.33-17.35-6.66-3.58,1.65-8.95,5.86-12.56,8.62-11.98,9.05-24,17.99-36.29,26.57h20.12c10.49-7.7,20.77-15.68,30.83-23.94,2.51-2.16,3.59,2.18,4.76,3.79,2.15,3.92,3.5,8.13,4.07,12.6.37,2.54.75,5.22,1.84,7.55h41.73c-3.29-2.59-6.57-5.15-9.87-7.63-1.11-.84-1.23-1.7-.05-2.67,15.36-12.64,30.08-26.32,45.2-39.37,6.9-5.95,13.88-11.77,21.03-17.3.43,0,.67.54.79,1.31.77,5.35.35,10.95-1.58,15.99h48.84c-7.35-6.71-13.76-14.73-22.2-20.13l-.24-.15c-6.84-4.2-13.11-9.98-20.61-12.8-2.01-.7-4.1-.02-5.88,1.06-13.2,9.89-25.51,20.97-37.83,32.02-6.9,6.19-13.81,12.38-20.88,18.35-.98.84-1.85.91-2.58-.18-3.46-5.62-5.65-11.78-6.75-18.17-2.12-12.17-.28-25.16,4.15-36.72,1.78-4.7,3.88-9.02,6.25-12.95,27.8-46.14,93.07-40.08,118.52,0,7.57,11.91,11.62,26.84,10.11,44.29-.24,1.03-.79,1.78-1.64,2.34ZM543.87,404.73c-1.65.99-3.29,2.01-4.92,3.04h18.96c-.36-.3-.73-.59-1.09-.88,1.79-17.66-1.81-34.45-9.29-48.79-17.79-34.15-57.56-54.44-98.9-39.67-19.62,6.63-35.36,21.52-44.81,39.67-7.94,15.24-11.44,32.79-9.06,49.67,1.23,8.7,4.01,17.22,8.55,25.17,1.58,2.43-1,4.24-3.02,5.6-2.51,1.83-5.01-.76-7.18-1.96-3.73-2.32-7.53-5-11.17-7.67-8.83-6.52-11.54-9.33-17.35-6.66-3.58,1.65-8.95,5.86-12.56,8.62-11.98,9.05-24,17.99-36.29,26.57h20.12c10.49-7.7,20.77-15.68,30.83-23.94,2.51-2.16,3.59,2.18,4.76,3.79,2.15,3.92,3.5,8.13,4.07,12.6.37,2.54.75,5.22,1.84,7.55h41.73c-3.29-2.59-6.57-5.15-9.87-7.63-1.11-.84-1.23-1.7-.05-2.67,15.36-12.64,30.08-26.32,45.2-39.37,6.9-5.95,13.88-11.77,21.03-17.3.43,0,.67.54.79,1.31.77,5.35.35,10.95-1.58,15.99h48.84c-7.35-6.71-13.76-14.73-22.2-20.13l-.24-.15c-6.84-4.2-13.11-9.98-20.61-12.8-2.01-.7-4.1-.02-5.88,1.06-13.2,9.89-25.51,20.97-37.83,32.02-6.9,6.19-13.81,12.38-20.88,18.35-.98.84-1.85.91-2.58-.18-3.46-5.62-5.65-11.78-6.75-18.17-2.12-12.17-.28-25.16,4.15-36.72,1.78-4.7,3.88-9.02,6.25-12.95,27.8-46.14,93.07-40.08,118.52,0,7.57,11.91,11.62,26.84,10.11,44.29-.24,1.03-.79,1.78-1.64,2.34ZM543.87,404.73c-1.65.99-3.29,2.01-4.92,3.04h18.96c-.36-.3-.73-.59-1.09-.88,1.79-17.66-1.81-34.45-9.29-48.79-17.79-34.15-57.56-54.44-98.9-39.67-19.62,6.63-35.36,21.52-44.81,39.67-7.94,15.24-11.44,32.79-9.06,49.67,1.23,8.7,4.01,17.22,8.55,25.17,1.58,2.43-1,4.24-3.02,5.6-2.51,1.83-5.01-.76-7.18-1.96-3.73-2.32-7.53-5-11.17-7.67-8.83-6.52-11.54-9.33-17.35-6.66-3.58,1.65-8.95,5.86-12.56,8.62-11.98,9.05-24,17.99-36.29,26.57h20.12c10.49-7.7,20.77-15.68,30.83-23.94,2.51-2.16,3.59,2.18,4.76,3.79,2.15,3.92,3.5,8.13,4.07,12.6.37,2.54.75,5.22,1.84,7.55h41.73c-3.29-2.59-6.57-5.15-9.87-7.63-1.11-.84-1.23-1.7-.05-2.67,15.36-12.64,30.08-26.32,45.2-39.37,6.9-5.95,13.88-11.77,21.03-17.3.43,0,.67.54.79,1.31.77,5.35.35,10.95-1.58,15.99h48.84c-7.35-6.71-13.76-14.73-22.2-20.13l-.24-.15c-6.84-4.2-13.11-9.98-20.61-12.8-2.01-.7-4.1-.02-5.88,1.06-13.2,9.89-25.51,20.97-37.83,32.02-6.9,6.19-13.81,12.38-20.88,18.35-.98.84-1.85.91-2.58-.18-3.46-5.62-5.65-11.78-6.75-18.17-2.12-12.17-.28-25.16,4.15-36.72,1.78-4.7,3.88-9.02,6.25-12.95,27.8-46.14,93.07-40.08,118.52,0,7.57,11.91,11.62,26.84,10.11,44.29-.24,1.03-.79,1.78-1.64,2.34ZM792.79,290.26l-.27-.26c-2.85-2.23-6.06-5.29-7.1-7.86-1.69-3.77-2.7-8.85-4.74-12.85-5.18-9.88-11.93-8.54-21.21-6.28-12.07,4.37-6.99,19.41-9.52,29.06-3.36,15.34-16.01,14.31-27.48,16.96-3,.69-5.93,1.64-8.58,3.19-5.33,3.7-8.73,9.37-12.42,14.58-4.52,5.65,2.07,9.24-1.02,13.34-5.31,5.86-15.99,1.3-22.68,5.55-2.33,1.48-3.11,4.4-2.31,6.93.51,1.74,1.3,2.96.57,4.4-.18.36-.4.72-.64,1.08-3.85,5.6-15.23,11.05-20.17,16.27-1.57,1.91-6.72,4.5-7.88,1.14-.1-1.2.68-2.18,1.29-3.35,2.14-4.01,3.75-8.49,3.03-12.97-.11-.35-.23-.72-.35-1.09-1.82-5.86-4.26-14.4-10.44-14.95-.59-.1-1.34-.19-1.68-.69-.41-.45-.37-1.32-.39-1.96-.03-7.59-4.72-15.02-12.35-15.92-3.42-.48.88-2.47,1.86-3.36,1.18-.93,2.1-2.39,2.36-3.9.94-5.15-6.29-7.05-11.38-6.56-1.33.17-2.2-.68-2.84-1.73-.07-.1-.13-.2-.19-.31-3.06-5.11-11.38-1.96-16.57.31-.01,0-.01,0-.02,0-2.56,1.01-5.95,1.23-8.59.55-.46-.14-.83-.33-1.11-.56-2.04-1.65-.01-5.39-.17-7.74.06-1.48-.58-2.94-1.76-3.82-6.56-5.08-13.62,8.06-21.55,11.56-1.76.78-3.56,1.09-5.4.62-.53-.2-1.25-.38-1.94-.62-1.17-.41-2.24-1-2.15-2.23,2.38-4.18,6.94-6.99,10.79-9.76,2.52-1.84,2.45-6.16-.09-7.99-3.29-2.1-7.4-1.22-11.04-1.74-4.89-1.48-9.81.22-14.72.02-4.96-.77-8.7-5.11-13.78-5.52-5.5-.32-9.95,2.54-12.31-2.17-.83-1.53-1.02-3.64-2.03-4.94-.81-1.07-2.21-1.86-3.64-2.02-3.47-.47-6.14,2.53-9.45,3-7.74.52-15.54.28-23.3.23-74.17-2.37-149.24-10.97-220.03-33.72-9.31.46-3.25,14.87-7.08,13.17-2.68-1.61-4.94-3.95-7.16-6.17-1.31-1.34-2.54-2.98-4.45-3.33-3.57-.78-7.28,2.1-6.98,5.94.63,12.14-1.34,24.02-5.11,35.42-2.47,7.51-5.71,14.79-9.42,21.81-1.78,3.37-3.67,6.67-5.64,9.91-.88,1.47-1.61,3.06-2.04,4.72-2.39,9.05,2.01,19.23-2.78,27.88-1.34,2.55-2.32,4.65-2.97,6.56-1.69,4.99-1.12,8.7,1.33,15.86.68,4.69-1.62,9.58-.5,14.36.53,4.83,2.88,9.25,4.78,13.77.1,1.92.39,3.81.75,5.68.81,4.23,1.98,8.39,2.14,12.69-.75,9.96,8.11,17.37,9.1,26.95-.27,2.87-.87,7.33.23,10.03.07.2.17.4.27.58.02.03.04.07.07.1,3.37,5.28,9.45,3.78,15.55,8.46,1.59,1.12,2.87,2.63,4.14,4.03,3.9,4.16,9.14,7.6,11.17,13.09.93,2.61.5,5.52,1.22,8.17,1.32,5.04,6.94,5.84,11.43,5.48,5.48-.02,11.09.48,16.5,1.21,2.16.66,2.13,3.59,3.58,4.96.44.41.84.79,1.36,1.1,1.37.88,2.76,1.73,4.16,2.56,9.93,5.92,20.41,10.95,30.15,17.19,2.99,1.85,6.55,2.26,9.97,2.71,10.17.54,21.25,6.02,31.06,2.8,2.15-.93,1.24-4.6,3.81-5.02,3.7-.35,7.5.69,10.05,1.5,6.3,2.24,9.51,6.86,15.87,13.74,1.26,1.35,2.6,2.63,3.45,4.21,1.57,2.81,2.06,6.09,3,9.14,1.73,7.02,8.85,10.22,14.54,13.65,2.77,1.93,6.58,2.37,9.01-.33,2.11-2.3,1.86-6.24,4.67-7.82,5.5-3.41,14.08.88,17.9,5.66,4.43,6.58,6.29,14.66,11.96,20.46,1.09,1.41,1.84,3.03,2.3,4.74,1.82,7.09,3.52,15.35,10.36,19.28,3.22,1.8,6.99,2.31,10.42,3.6,2.64.92,4.85,2.87,7.74,3.07,2.47.28,5.09-.71,5.91-3.11,1.21-4.32-2.68-8.04-2.32-12.54-.52-17.67,12.81-21.93,25.96-29.59,5.86-3.86,11.96-8.77,18.9-9.87,10.33-1.81,15.07,5.37,23.89,1.93.51-.15,1-.21,1.45-.08.82.2,1.43,1.18,1.93,1.88,4.11,5.91,12.83,4.26,18.22,1.4,2.41-1.16,3.48,2.26,5.66,2.58,2.91,1.02,6.98-.81,6.34-4.34-.21-2.23-2.01-4.28-3.38-6.14-.56-.83-.71-1.76-.46-2.73.3-1.07.22-1.87-.49-2.63-3.5-3.98,6.44-2.81,8.29-3.68,1.18-.29,2.38-.7,3.61-.7,2.96.24,5.94,1.63,8.82.83,10.01-2.65,15.81-4.83,25.75,4.99.33.27,1.09.53,1.17.53.13.02.4.06.53.08,5.52-.23,9.44-6.05,14.93-6.13,1.19-.02,2.34.39,3.32,1.05,3.28,2.29,5.52,5.85,8.47,8.63.69.71,1.33,1.49,1.76,2.37,1.8,4.16.25,9,1.27,13.37,1.21,7.97,7.15,13.29,11.18,20.01,2.46,4.67,7.79,6.57,11.21,10.31,1.96,2.66.76,6.85,3.4,9.23,2.41,2.26,6.41,1.9,9.24.49,3.04-1.67,4.15-5.1,5.04-8.35,5.24-16.11-3.39-26.94-8.2-40.61-8.65-19.83-22.97-30.04-9.09-52.9,1.11-1.77,2.45-3.36,3.89-4.86,3.45-3.63,7.45-6.83,10-11.17,1.33-2.11,2.57-4.35,4.29-6.15,1.2-1.35,2.84-2.18,4.41-3.02,4.53-2.41,5.43-8.48,9.4-11.72,5.43-4.63,13.82-4.07,12.62-13.21-.12-1.48.5-2.64,1.37-3.79.16-.23.34-.45.53-.68,1.41-1.73,3.13-3.56,3.45-6.5.39-3.32-1.9-5.62-2.47-8.31-.25-1.13-.37-2.31-.82-3.38-.73-1.8-2.61-3.27-2.43-5.32.2-2.49,2.08-4.49,3.18-6.66,2.9-5.02,3.98-10.46,3.13-16.04-.14-.96-.25-1.97-.03-2.9.09-.19.18-.37.28-.56,3.62-7.4,7.12-15.25,5.69-23.68-.09-.78-.23-1.71.13-2.37.29-.67,1.13-1.11,1.83-1.41,7.25-3.17,14.86-7.44,17.42-15.15.46-1.19,1.34-2,2.53-2.39,3.14-.98,6.26-2.23,8.9-4.25.18-.13.35-.27.5-.42,2.26-2.21,2.43-6.61.39-8.54-1.93-2.33-5.34-3.89-7.39-6.58-3.2-3.73-1.35-9.9.84-13.74,1.97-3.49,6.45-4.9,8.01-8.77,1.01-2.47,1.57-5.14,4.18-6.3,2.3-1.32,3.75-3.55,5.97-5.14.14-.11.29-.21.45-.31,8.4-4.96,9.87-11.31,2.92-18.46ZM593.88,356.94l.03-.31c1.51-14.29-.32-23.5,12.86-32.39,1.68-1.34,3.74-1.7,5.75-1.44.83.03,1.41.14,1.38.52-.16.76-.95,1.37-1.38,2.16-1.07,1.59-1.66,3.51-2.69,5.09-2.08,2.47-5.97,3.25-7.34,6.31-.98,1.92-1.62,3.93-2.21,5.75-.29,1.02-.54,1.92-.78,3.02-1.16,5.13-.93,9.09-.28,12.45,1.38,7.32,4.71,11.79-.24,19.2-.63.84-1.37.88-1.97.18-4.24-5.41-3.78-12.89-3.23-19.38.03-.39.07-.78.1-1.16ZM290.95,487.9c15.02-9.36,29.7-19.31,43.99-29.78.31-.23.62-.45.92-.68,10.49-7.7,20.77-15.68,30.83-23.94,2.51-2.16,3.59,2.18,4.76,3.79,2.15,3.92,3.5,8.13,4.07,12.6.37,2.54.75,5.22,1.84,7.55.11.23.22.46.34.68.33.6.72,1.18,1.17,1.72,5.23,5.95,12.85,10.98,15.72,18.42-.18.46-.93.29-1.41.19-5.02-1.2-10.06-2.69-14.56-5.21l-.3-.17c-22.56-15.23-31.49,6.2-52.51,12.33-8.69,2.29-21.97,5.83-31.43,6.12-4.15.16-6.64-1.47-3.43-3.62ZM410.63,371.05c1.78-4.7,3.88-9.02,6.25-12.95,27.8-46.14,93.07-40.08,118.52,0,7.57,11.91,11.62,26.84,10.11,44.29-.24,1.03-.79,1.78-1.64,2.34-1.65.99-3.29,2.01-4.92,3.04-2.35,1.48-4.69,2.99-7.03,4.49-.84.53-1.67.75-2.48.41-2.09-1.5-4.07-3.16-5.99-4.9-7.35-6.71-13.76-14.73-22.2-20.13l-.24-.15c-6.84-4.2-13.11-9.98-20.61-12.8-2.01-.7-4.1-.02-5.88,1.06-13.2,9.89-25.51,20.97-37.83,32.02-6.9,6.19-13.81,12.38-20.88,18.35-.98.84-1.85.91-2.58-.18-3.46-5.62-5.65-11.78-6.75-18.17-2.12-12.17-.28-25.16,4.15-36.72ZM580.09,458.12c3.1,4.19,5.9,8.58,8.24,13.17-6.12-3.69-11.94-8.7-18.04-13.17-.31-.23-.62-.46-.94-.68-2.64-1.9-5.34-3.68-8.14-5.2l-.24-.12c-11.89-5.24-21.35-14.75-31.37-22.89-1.13-.84-.74-1.72.36-2.31,5.44-3.48,11.15-6.51,16.58-10,.49-.32,1.2-.74,1.66-.35,1.27,2.78,1.82,6.04,3.71,8.74,4.25,6.92,10.72,12.12,15.89,18.31,4.12,4.35,8.14,8.95,11.79,13.82.17.22.34.45.5.68ZM409.22,449.81c-1.11-.84-1.23-1.7-.05-2.67,15.36-12.64,30.08-26.32,45.2-39.37,6.9-5.95,13.88-11.77,21.03-17.3.43,0,.67.54.79,1.31.77,5.35.35,10.95-1.58,15.99-.87,2.31-2.06,4.5-3.59,6.5-8.84,11.26-18.42,22.48-27.19,33.59,8.61-3.42,16.75-8.87,24.56-13.99.73-.51,1.64-.97,2.5-.73,8.13,5,14.27,12.99,20.92,19.85,1.38,1.51,2.79,2.99,4.22,4.45.21.23.43.46.66.68,5.97,6.1,12.22,11.94,17.72,18.47.8.99.83,1.51-.48,1.26-11.33-2.46-22.92-4.68-34.19-7.6l-.27-.08c-2.9-.75-6.15-2.01-9.28-2.66-1.28-.36-2.48.31-2.73,1.66-2.32,9.07,4.61,18.2,9.53,25.88.21.44.83,1.16.43,1.39-21.14-8.84-39.33-24-57.47-38.32-.29-.23-.58-.46-.86-.68-3.29-2.59-6.57-5.15-9.87-7.63ZM728.82,418.69l-.07.02c-1.81-3.27-3.15-7.11-3.32-10.94-.06-1.5.05-3,.38-4.46.75,1.39,1.39,2.89,1.9,4.46,1.14,3.51,1.62,7.35,1.11,10.92ZM765.46,318.27c-8.4,8.6-10.73,23.5-3.61,33.4.54.83.76,1.6.4,2.31-1.47,1.85-3.53,3.12-5.74,4.12-1.64.75-3.37,1.36-4.99,1.96-7.34,2.77-16.64,9-18.57,16.89-1.24,4.15,2.67,7.75,2.84,11.61.03,1.48-.64,4.03-1.68,5.6-.23.33-.82.32-.87.28-.62-.15-1.06-.53-1.64-.92-9.05-6.64-18.84,4.79-17.96,14.25.04.45.11.9.2,1.34.65,7.98,6.02,14.46,8.49,21.88.3,3.45-1.63,7.06,1.07,9.83,1.2,1.6,4.03,3.16,4.35,5.42.43,2.09-.03,4.08-2.39,4.83-1.48.72-3.02,1.43-3.43,3-.29,1.07-.05,2.22.18,3.37.05.23.1.45.13.68.21,1.12.32,2.22-.16,3.23-1.42,2.89-4.56,4.32-6.89,6.37-3.11,2.57-4.87,6.41-7.6,9.35-3.51,2.87-7.23,5.4-9.96,9.12-1.73,2.08-4.16.41-5.97-.73-13.24-8.28-25.8-17.63-38.04-27.34-.29-.22-.57-.45-.86-.68-5.63-4.48-11.2-9.03-16.73-13.59-10.5-8.39-18.94.95-29.69,2.13-1.29.07-2.47-.34-3.53-1.09-15.5-11.57-29.81-24.96-44.9-37.12-.36-.3-.73-.59-1.09-.88,1.79-17.66-1.81-34.45-9.29-48.79-17.79-34.15-57.56-54.44-98.9-39.67-19.62,6.63-35.36,21.52-44.81,39.67-7.94,15.24-11.44,32.79-9.06,49.67,1.23,8.7,4.01,17.22,8.55,25.17,1.58,2.43-1,4.24-3.02,5.6-2.51,1.83-5.01-.76-7.18-1.96-3.73-2.32-7.53-5-11.17-7.67-8.83-6.52-11.54-9.33-17.35-6.66-3.58,1.65-8.95,5.86-12.56,8.62-11.98,9.05-24,17.99-36.29,26.57-.33.23-.66.46-.99.68-7.1,4.95-14.29,9.76-21.61,14.4-5.76,3.05-25.33,17.72-28.48,12.99-1.35-7.41-5.79-13.49-11.38-18.33-3.05-3.11-6.11-6.31-9.48-9.06-.28-.24-.56-.46-.85-.68-2.63-2.07-5.44-3.84-8.59-5.09-1.16-.57-1.69-1.52-1.76-2.79-.25-8.62-4.7-16.02-8.04-23.78-1.73-5.71-.27-11.93-2.69-17.53-.05-.16-.09-.32-.13-.48-.83-3.38.24-6.97-1.32-10.25-1.51-2.96-4-5.79-4.56-9.1-.86-3.61.36-7.87.6-11.9.58-5.3-2.53-9.54-1.85-14.65.31-1.28.88-2.53,1.53-3.77,1.33-2.57,3.01-5.12,3.41-7.98,1.62-6.84.6-14.16,1.03-21.25.11-1.29.51-2.5,1.13-3.65,2.93-5.32,5.8-10.71,8.46-16.19,6.43-13.25,11.59-27.06,13.19-41.8.36-2.79,2.59-1.39,3.93.47,1.89,3.03,2.13,8.31,6.74,8.42,7.53.42,8.87-10.44,9.88-17.08.19-.98.67-1.49,1.56-1.44,77.56,20.44,158.19,32.54,238.52,28.97,1.63-.17,3.12.46,4.22,1.67,4.6,4.98,11.07,4.77,17.56,4.8,1.01.05,1.98.27,2.92.64,6.15,2.96,12.35,5.56,19.24,5.14.97.13.47.82.04,1.33-2.52,2.88-5.38,5.69-7.72,8.76-.03.04-.06.08-.09.12-1.39,1.96-2.36,4.53-1.85,6.94.32,1.52,1.49,2.81,2.92,3.41,2.88,1.36,6.02-.55,9.05-.61,3.29.59,6.33,2.9,9.66,2.74,6.06.35,12.23-2.51,17.62-5.86,1.13-.71,2.34-.51,3.28.39,2.65,2.47,5.98,4.07,9.44,5.18.79.25,1.78.74,1.13,1.65-9.38,9.37-7.16,23.11-8.08,35.23-.06.97-.16,1.93-.28,2.88-.95,9.82,1.87,24.11,12.28,27.81,8.87,2.18,16.55-6.29,17.53-14.64.85-5.33-.78-10.69-1.7-16.05-.52-3.02-.81-6.04-.31-9.06,1.01-6.17,9.66-17.82,15.72-11.49,3.51,5.69-3.57,13.59.1,19.63.23.35.49.65.77.92,2.16,2.08,5.42,1.56,7.96,0,.51-.31.99-.67,1.43-1.05,1.34-1.19,2.54-1.11,3,.43.07.21.13.41.18.62,2.32,8.95-8.98,16.69-3.02,24.81,10.27,13.03,25.58.87,35.37-7.37,6.14-4.66,14.55-9.13,15.68-17.44.05-.28.08-.57.1-.86.02-1.25.73-2.15,2.09-2.16,9.08-.14,19.4-4.16,22.67-13.38,1.05-3.49-1.39-7.38-.42-10.89,2.56-5.78,7.49-10.88,14.25-10.98,12.91-1.5,21.68-4.9,27.36-10.8,6.6-6.88,9-17.15,8.83-31.77-.14-1.82.36-3.79,2.14-4.42,1.35-.61,2.8-1.37,3.99-.66.49.32.94.69,1.29,1.2,5.4,7.53,1.34,15.84,11,21.13,1.03.55,2.4,1.54,2.52,2.57.04.76-.44,1.44-.99,2-3.56,3.47-7.26,6.83-11.34,9.65l-.18.2s-.04.07-.06.1c-1.86,3.06-2.82,6.87-5.83,9.24ZM543.87,404.73c-1.65.99-3.29,2.01-4.92,3.04h18.96c-.36-.3-.73-.59-1.09-.88,1.79-17.66-1.81-34.45-9.29-48.79-17.79-34.15-57.56-54.44-98.9-39.67-19.62,6.63-35.36,21.52-44.81,39.67-7.94,15.24-11.44,32.79-9.06,49.67,1.23,8.7,4.01,17.22,8.55,25.17,1.58,2.43-1,4.24-3.02,5.6-2.51,1.83-5.01-.76-7.18-1.96-3.73-2.32-7.53-5-11.17-7.67-8.83-6.52-11.54-9.33-17.35-6.66-3.58,1.65-8.95,5.86-12.56,8.62-11.98,9.05-24,17.99-36.29,26.57h20.12c10.49-7.7,20.77-15.68,30.83-23.94,2.51-2.16,3.59,2.18,4.76,3.79,2.15,3.92,3.5,8.13,4.07,12.6.37,2.54.75,5.22,1.84,7.55h41.73c-3.29-2.59-6.57-5.15-9.87-7.63-1.11-.84-1.23-1.7-.05-2.67,15.36-12.64,30.08-26.32,45.2-39.37,6.9-5.95,13.88-11.77,21.03-17.3.43,0,.67.54.79,1.31.77,5.35.35,10.95-1.58,15.99h48.84c-7.35-6.71-13.76-14.73-22.2-20.13l-.24-.15c-6.84-4.2-13.11-9.98-20.61-12.8-2.01-.7-4.1-.02-5.88,1.06-13.2,9.89-25.51,20.97-37.83,32.02-6.9,6.19-13.81,12.38-20.88,18.35-.98.84-1.85.91-2.58-.18-3.46-5.62-5.65-11.78-6.75-18.17-2.12-12.17-.28-25.16,4.15-36.72,1.78-4.7,3.88-9.02,6.25-12.95,27.8-46.14,93.07-40.08,118.52,0,7.57,11.91,11.62,26.84,10.11,44.29-.24,1.03-.79,1.78-1.64,2.34ZM543.87,404.73c-1.65.99-3.29,2.01-4.92,3.04h18.96c-.36-.3-.73-.59-1.09-.88,1.79-17.66-1.81-34.45-9.29-48.79-17.79-34.15-57.56-54.44-98.9-39.67-19.62,6.63-35.36,21.52-44.81,39.67-7.94,15.24-11.44,32.79-9.06,49.67,1.23,8.7,4.01,17.22,8.55,25.17,1.58,2.43-1,4.24-3.02,5.6-2.51,1.83-5.01-.76-7.18-1.96-3.73-2.32-7.53-5-11.17-7.67-8.83-6.52-11.54-9.33-17.35-6.66-3.58,1.65-8.95,5.86-12.56,8.62-11.98,9.05-24,17.99-36.29,26.57h20.12c10.49-7.7,20.77-15.68,30.83-23.94,2.51-2.16,3.59,2.18,4.76,3.79,2.15,3.92,3.5,8.13,4.07,12.6.37,2.54.75,5.22,1.84,7.55h41.73c-3.29-2.59-6.57-5.15-9.87-7.63-1.11-.84-1.23-1.7-.05-2.67,15.36-12.64,30.08-26.32,45.2-39.37,6.9-5.95,13.88-11.77,21.03-17.3.43,0,.67.54.79,1.31.77,5.35.35,10.95-1.58,15.99h48.84c-7.35-6.71-13.76-14.73-22.2-20.13l-.24-.15c-6.84-4.2-13.11-9.98-20.61-12.8-2.01-.7-4.1-.02-5.88,1.06-13.2,9.89-25.51,20.97-37.83,32.02-6.9,6.19-13.81,12.38-20.88,18.35-.98.84-1.85.91-2.58-.18-3.46-5.62-5.65-11.78-6.75-18.17-2.12-12.17-.28-25.16,4.15-36.72,1.78-4.7,3.88-9.02,6.25-12.95,27.8-46.14,93.07-40.08,118.52,0,7.57,11.91,11.62,26.84,10.11,44.29-.24,1.03-.79,1.78-1.64,2.34ZM543.87,404.73c-1.65.99-3.29,2.01-4.92,3.04h18.96c-.36-.3-.73-.59-1.09-.88,1.79-17.66-1.81-34.45-9.29-48.79-17.79-34.15-57.56-54.44-98.9-39.67-19.62,6.63-35.36,21.52-44.81,39.67-7.94,15.24-11.44,32.79-9.06,49.67,1.23,8.7,4.01,17.22,8.55,25.17,1.58,2.43-1,4.24-3.02,5.6-2.51,1.83-5.01-.76-7.18-1.96-3.73-2.32-7.53-5-11.17-7.67-8.83-6.52-11.54-9.33-17.35-6.66-3.58,1.65-8.95,5.86-12.56,8.62-11.98,9.05-24,17.99-36.29,26.57h20.12c10.49-7.7,20.77-15.68,30.83-23.94,2.51-2.16,3.59,2.18,4.76,3.79,2.15,3.92,3.5,8.13,4.07,12.6.37,2.54.75,5.22,1.84,7.55h41.73c-3.29-2.59-6.57-5.15-9.87-7.63-1.11-.84-1.23-1.7-.05-2.67,15.36-12.64,30.08-26.32,45.2-39.37,6.9-5.95,13.88-11.77,21.03-17.3.43,0,.67.54.79,1.31.77,5.35.35,10.95-1.58,15.99h48.84c-7.35-6.71-13.76-14.73-22.2-20.13l-.24-.15c-6.84-4.2-13.11-9.98-20.61-12.8-2.01-.7-4.1-.02-5.88,1.06-13.2,9.89-25.51,20.97-37.83,32.02-6.9,6.19-13.81,12.38-20.88,18.35-.98.84-1.85.91-2.58-.18-3.46-5.62-5.65-11.78-6.75-18.17-2.12-12.17-.28-25.16,4.15-36.72,1.78-4.7,3.88-9.02,6.25-12.95,27.8-46.14,93.07-40.08,118.52,0,7.57,11.91,11.62,26.84,10.11,44.29-.24,1.03-.79,1.78-1.64,2.34ZM543.87,404.73c-1.65.99-3.29,2.01-4.92,3.04h18.96c-.36-.3-.73-.59-1.09-.88,1.79-17.66-1.81-34.45-9.29-48.79-17.79-34.15-57.56-54.44-98.9-39.67-19.62,6.63-35.36,21.52-44.81,39.67-7.94,15.24-11.44,32.79-9.06,49.67,1.23,8.7,4.01,17.22,8.55,25.17,1.58,2.43-1,4.24-3.02,5.6-2.51,1.83-5.01-.76-7.18-1.96-3.73-2.32-7.53-5-11.17-7.67-8.83-6.52-11.54-9.33-17.35-6.66-3.58,1.65-8.95,5.86-12.56,8.62-11.98,9.05-24,17.99-36.29,26.57h20.12c10.49-7.7,20.77-15.68,30.83-23.94,2.51-2.16,3.59,2.18,4.76,3.79,2.15,3.92,3.5,8.13,4.07,12.6.37,2.54.75,5.22,1.84,7.55h41.73c-3.29-2.59-6.57-5.15-9.87-7.63-1.11-.84-1.23-1.7-.05-2.67,15.36-12.64,30.08-26.32,45.2-39.37,6.9-5.95,13.88-11.77,21.03-17.3.43,0,.67.54.79,1.31.77,5.35.35,10.95-1.58,15.99h48.84c-7.35-6.71-13.76-14.73-22.2-20.13l-.24-.15c-6.84-4.2-13.11-9.98-20.61-12.8-2.01-.7-4.1-.02-5.88,1.06-13.2,9.89-25.51,20.97-37.83,32.02-6.9,6.19-13.81,12.38-20.88,18.35-.98.84-1.85.91-2.58-.18-3.46-5.62-5.65-11.78-6.75-18.17-2.12-12.17-.28-25.16,4.15-36.72,1.78-4.7,3.88-9.02,6.25-12.95,27.8-46.14,93.07-40.08,118.52,0,7.57,11.91,11.62,26.84,10.11,44.29-.24,1.03-.79,1.78-1.64,2.34ZM543.87,404.73c-1.65.99-3.29,2.01-4.92,3.04h18.96c-.36-.3-.73-.59-1.09-.88,1.79-17.66-1.81-34.45-9.29-48.79-17.79-34.15-57.56-54.44-98.9-39.67-19.62,6.63-35.36,21.52-44.81,39.67-7.94,15.24-11.44,32.79-9.06,49.67h11.72c-2.12-12.17-.28-25.16,4.15-36.72,1.78-4.7,3.88-9.02,6.25-12.95,27.8-46.14,93.07-40.08,118.52,0,7.57,11.91,11.62,26.84,10.11,44.29-.24,1.03-.79,1.78-1.64,2.34ZM611.16,358.1h-11.94c1.38,7.32,4.71,11.79-.24,19.2-.63.84-1.37.88-1.97.18-4.24-5.41-3.78-12.89-3.23-19.38h-10.45c-.06.97-.16,1.93-.28,2.88-.95,9.82,1.87,24.11,12.28,27.81,8.87,2.18,16.55-6.29,17.53-14.64.85-5.33-.78-10.69-1.7-16.05ZM627.44,358.1c2.16,2.08,5.42,1.56,7.96,0h-7.96ZM722.47,309.03c-3,.69-5.93,1.64-8.58,3.19-5.33,3.7-8.73,9.37-12.42,14.58-4.52,5.65,2.07,9.24-1.02,13.34-5.31,5.86-15.99,1.3-22.68,5.55-2.33,1.48-3.11,4.4-2.31,6.93.51,1.74,1.3,2.96.57,4.4-.18.36-.4.72-.64,1.08-3.85,5.6-15.23,11.05-20.17,16.27-1.57,1.91-6.72,4.5-7.88,1.14-.1-1.2.68-2.18,1.29-3.35,2.14-4.01,3.75-8.49,3.03-12.97-.11-.35-.23-.72-.35-1.09h-11.3c2.32,8.95-8.98,16.69-3.02,24.81,10.27,13.03,25.58.87,35.37-7.37,6.14-4.66,14.55-9.13,15.68-17.44.05-.28.08-.57.1-.86.02-1.25.73-2.15,2.09-2.16,9.08-.14,19.4-4.16,22.67-13.38,1.05-3.49-1.39-7.38-.42-10.89,2.56-5.78,7.49-10.88,14.25-10.98,12.91-1.5,21.68-4.9,27.36-10.8h-31.62Z"/>
  </g>
</svg>